<svg width="842" height="530" viewBox="0 0 842 530" fill="none" xmlns="http://www.w3.org/2000/svg">
<path d="M254.98 368.92H278.78V432.5H309.04V464.8H278.44V495.4L306.66 497.1V526H206.7V498.12L227.78 496.42C234.353 495.967 237.64 492.793 237.64 486.9V464.46H150.6V436.24L214.52 301.94L246.82 317.92L192.08 432.5H240.7V414.14L254.98 368.92Z" fill="#DA2237"/>
<path d="M421.48 302.62C472.933 302.62 498.66 339.907 498.66 414.48C498.66 454.147 491.973 483.273 478.6 501.86C465.227 520.22 445.393 529.4 419.1 529.4C392.807 529.4 373.2 520.333 360.28 502.2C347.36 483.84 340.9 455.393 340.9 416.86C340.9 378.327 348.04 349.653 362.32 330.84C376.6 312.027 396.32 302.62 421.48 302.62ZM391.56 479.42C398.133 490.98 407.54 496.76 419.78 496.76C432.02 496.76 441.427 490.753 448 478.74C454.8 466.727 458.2 445.873 458.2 416.18C458.2 386.26 454.913 365.407 448.34 353.62C441.993 341.833 432.587 335.94 420.12 335.94C407.653 335.94 398.133 342.287 391.56 354.98C385.213 367.447 382.04 388.413 382.04 417.88C382.04 447.12 385.213 467.633 391.56 479.42Z" fill="#234E5F"/>
<path d="M625.98 368.92H649.78V432.5H680.04V464.8H649.44V495.4L677.66 497.1V526H577.7V498.12L598.78 496.42C605.353 495.967 608.64 492.793 608.64 486.9V464.46H521.6V436.24L585.52 301.94L617.82 317.92L563.08 432.5H611.7V414.14L625.98 368.92Z" fill="#DA2237"/>
<path d="M438 287.2C435.5 286.2 429.4 283.2 424.4 280.6L415.3 275.8L414.6 261.1C414.3 253.1 413.7 243.4 413.3 239.5C412.7 232.5 412.7 232.5 414.7 234.3C416.7 236.1 416.8 236 418.8 232.8C421.1 228.9 441.3 192.4 456.5 164.6L467.4 144.8L466.3 137.4C465.1 128.8 459.9 117.3 451.5 104.4C445.5 95.1999 444.6 92.9999 448.5 97.5999C449.9 99.1999 451 100.9 451 101.4C451 101.9 451.8 103 452.8 103.9C453.8 104.8 455.7 107.5 457.1 110C458.4 112.5 460.1 115.1 460.8 115.8C462.3 117.5 464.9 123.1 468.6 133.2C470.2 137.5 471.9 141 472.3 141C472.7 141 474.3 141.9 475.8 142.9C477.3 144 481.7 145.6 485.5 146.5C489.4 147.5 496 149.7 500.3 151.6C504.6 153.5 508.8 155 509.5 155C510.3 155 511 155.5 511 156.1C511 156.8 513.1 157.1 516.8 157C519.9 156.9 525.9 156.8 530 156.9L537.5 157.1L531.3 159.1C527.9 160.2 523.2 162.5 520.8 164.3C515.9 168 517.6 164.7 482.7 236.6C470.1 262.5 459 284.7 458 286C456.4 288.1 455.2 288.5 449.3 288.7C444.5 288.9 441.2 288.5 438 287.2Z" fill="#234E5F"/>
<path d="M684 286C679.3 285.6 671.9 284.5 667.5 283.5C663.1 282.6 658.6 281.7 657.5 281.4C653.7 280.7 633.4 274.4 622.2 270.6C618.2 269.3 610.1 265.8 604.2 262.9C582.1 252 566.2 239.8 553.8 224C549.3 218.3 542.6 205.2 540.5 197.8C538.7 191.5 538.3 177.4 539.8 172.4C540.4 170.7 540.6 168.2 540.4 166.9C540.3 165.6 539.9 162.5 539.6 160.1L539.2 155.8L541.9 158.4C544.9 161.3 549 161 549 157.9C549 156.9 549.5 155.8 550 155.5C550.6 155.1 551 154.3 550.9 153.7C550.8 153 551 151.6 551.4 150.5C551.9 149.4 552.4 147.8 552.8 147C553.1 146.2 553.2 144.9 553.1 144.3C553 143.6 553.3 143 553.8 143C554.4 143 555.1 141.3 555.5 139.3C555.9 137.2 556.6 135 557.1 134.4C557.6 133.7 558 132.8 557.9 132.4C557.8 131.9 558 130.7 558.3 129.8C558.7 128.8 559.3 127.2 559.7 126.3C560 125.3 560.2 124.1 560.1 123.6C560 123.2 560.3 122.3 560.8 121.6C561.3 121 562 119.3 562.4 117.8C562.7 116.2 563.5 115 564 115C564.6 115 565 114.1 565 113.1C565 112 565.4 110.9 565.9 110.6C566.4 110.3 566.6 109.1 566.3 108.1C566 107 566.5 104.9 567.3 103.3C568.9 100.3 570.2 97.2 570.5 95.5C570.5 95 571.1 93.2 571.8 91.7C572.5 90.1 573 88.3 573 87.5C573 86.7 573.4 85.9 573.9 85.6C574.4 85.2 575.1 83.2 575.5 81C575.9 78.8 576.6 76.8 577.1 76.4C577.6 76.1 577.8 75.5 577.5 75C577.2 74.6 577.7 72.9 578.5 71.4C579.3 69.8 580 67.7 580 66.8C580 65.9 580.4 64.9 580.9 64.6C581.4 64.3 582.1 62.5 582.4 60.7C582.7 58.9 583.9 55.7 584.9 53.7C585.9 51.7 587.6 46.9 588.5 43C590 36.8 590 35.9 588.7 34.5C587.8 33.7 586.4 33 585.6 33C583.8 33 590.7 23.5 596.2 18.4C605.4 9.89997 623 2.79997 638.4 1.39997C642.3 1.09997 645.8 0.599972 646.1 0.399972C647 -0.100028 657 -0.100022 666.8 0.499978C684.2 1.49998 711.9 7.49998 725.9 13.3C729.5 14.8 732.8 16 733.3 16C733.8 16 738.1 17.8 742.8 20.1C747.6 22.4 753.5 25.1 756 26.3C762.3 29.2 782.2 41.8 783.8 43.7C784.4 44.6 785 45 785 44.5C785 44 785.6 44.3 786.3 45.1C786.9 46 790.5 49 794.1 51.8C809 63.4 824.1 83.3 831.5 101C835.2 109.9 836 112.7 838 122.8C845.7 162.2 840.6 190.9 820 223.6C807.4 243.7 792.3 259.2 776 268.9C770.3 272.2 763.6 275.7 761.1 276.6C756.8 278.1 754.2 279.1 749.5 281.1C748.4 281.6 742.1 283 735.5 284.3C722.6 286.8 701 287.5 684 286Z" fill="#234E5F"/>
<path d="M376.3 287.4C375.1 286.3 371.3 279.9 367.9 273C360.9 258.8 331.5 198.3 323.3 181C318 170 313.9 164 311.5 164C310.9 164 308.6 167 306.4 170.8C298 184.5 292 199.6 292 206.9C292 212.4 288 224.5 283.7 232.2C277.5 243.3 261 257.1 245 264.6C233.6 270 225.9 273 222.1 273.6C220.1 273.9 218.1 274.5 217.5 275C216.5 275.8 201.8 278.9 196.5 279.5C194.9 279.7 189.2 280.3 184 280.9C165.6 283 143.3 282.9 123.9 280.5C114.9 279.4 94.7 274.8 90.5 273C89.4 272.5 86.3 271.2 83.5 270.1C70.3 265 67.4 263.7 63.4 260.9C61.1 259.3 58.8 258 58.4 258C57.7 258 46.4 248.9 42.5 245.3C38.5 241.5 29.5 230.8 25.7 225.3C18.8 215.4 10.4 197.8 11.6 195.8C11.9 195.4 11.7 195 11.2 195C10.3 195 4.80005 179.8 5.20005 178.3C5.30005 177.9 4.60005 175 3.70005 172C1.10005 163.3 0.700046 160.5 0.500046 144.5C0.400046 132.2 0.700045 127.6 2.60004 119C7.10004 97.7 16.7 76.7 28.7 62C32.5 57.2 46 44 47 44C47.5 44 48.8 43.2 49.8 42.2C53.2 38.8 58.7 35 60.3 35C61.1 35 62 34.6 62.2 34.1C62.6 33.1 70.6 28 71.9 28C72.4 28 75.4 26.5 78.7 24.7C84.2 21.6 106.2 13.7 112.3 12.6C113.9 12.3 116.6 11.6 118.3 11.1C123.7 9.40001 144.8 6.00001 156 5.10001C173.1 3.70001 201 5.1 213.5 7.9C228.1 11.2 244.2 16.7 249.2 20.2C250.6 21.2 252.1 22 252.5 22C253.5 22 267 32.9 269 35.3C269.8 36.3 271.8 38.5 273.3 40.3C274.9 42.1 276.8 45.1 277.6 47C278.5 48.9 280.2 52.8 281.4 55.5L283.7 60.5L281.3 60.7C279.9 60.7 278.3 61.3 277.7 61.9C276.8 62.8 276.7 69.8 277.5 77.5C277.9 81.1 279 95.4 279.5 103C279.7 106 280.1 111.4 280.4 115C280.7 118.6 281.2 124.4 281.4 128C281.7 131.6 282.1 136.8 282.4 139.5C282.6 142.3 283.2 148.8 283.5 154C283.9 159.2 284.4 165.3 284.6 167.5C284.8 169.7 285.2 176 285.6 181.5C286.2 190.9 286.9 192.9 289.5 193C290.6 193 293.6 187 296.6 179C297.5 176.5 298.8 173.8 299.5 173C300.1 172.2 302.3 168 304.5 163.8C308.2 156.3 310.4 154.4 313.1 156.1C313.9 156.6 316.2 157 318.3 157C321.6 157 322.8 156.3 327 152C329.7 149.3 332.6 147 333.4 147C334.3 147 335 146.6 335 146C335 145.5 335.9 145 337 145C338.1 145 339 144.6 339 144C339 143.5 339.9 143 341 143C342.1 143 343 142.6 343 142C343 141.4 346.7 141 352 141H361V138C361 136.4 361.5 135 362 135C362.6 135 363 134.1 363 133C363 131.9 363.5 131 364 131C364.6 131 365 129.7 365 128.2C365 126.6 365.8 124.8 367 124C368.1 123.2 369 121.8 369 120.8C369 119.8 369.5 119 370 119C370.6 119 371 118.3 371 117.4C371 116.6 371.6 115.2 372.4 114.4C375.5 111.4 374.8 115.1 370.8 123.6C367.7 130.3 366.6 134 366.2 139L365.8 145.6L390 189.5C403.4 213.7 414.9 234.6 415.5 236C416.3 237.5 417.1 245 417.4 254.5C417.8 263.3 418.4 272 418.7 273.8C419.1 276.4 418.9 277 417.4 277C416.4 277 410.6 279.5 404.4 282.6C394.6 287.6 392.4 288.3 385.9 288.8C379.7 289.2 378.1 288.9 376.3 287.4Z" fill="#DA2237"/>
<path d="M291.2 76.7999C290 74.3999 287.9 70.5 286.5 68.1C282 60.5 284.3 61.7 290.4 70.1C295.4 77.1 296 78.4 294.8 79.6C293.6 80.8 293.1 80.3999 291.2 76.7999Z" fill="#DA2237"/>
</svg>
