<?xml version="1.0" encoding="UTF-8" standalone="no"?>
<!-- Created with Inkscape (http://www.inkscape.org/) -->

<svg
   width="100"
   height="100"
   viewBox="0 0 100 100"
   version="1.1"
   id="svg5"
   inkscape:version="1.3 (0e150ed6c4, 2023-07-21)"
   sodipodi:docname="defaultOrganization.svg"
   xmlns:inkscape="http://www.inkscape.org/namespaces/inkscape"
   xmlns:sodipodi="http://sodipodi.sourceforge.net/DTD/sodipodi-0.dtd"
   xmlns="http://www.w3.org/2000/svg"
   xmlns:svg="http://www.w3.org/2000/svg">
  <sodipodi:namedview
     id="namedview1"
     pagecolor="#ffffff"
     bordercolor="#000000"
     borderopacity="0.25"
     inkscape:showpageshadow="2"
     inkscape:pageopacity="0.0"
     inkscape:pagecheckerboard="0"
     inkscape:deskcolor="#d1d1d1"
     inkscape:zoom="1.3735549"
     inkscape:cx="112.48185"
     inkscape:cy="83.360337"
     inkscape:window-width="1920"
     inkscape:window-height="991"
     inkscape:window-x="-9"
     inkscape:window-y="-9"
     inkscape:window-maximized="1"
     inkscape:current-layer="layer1" />
  <defs
     id="defs2" />
  <g
     inkscape:label="Warstwa 1"
     inkscape:groupmode="layer"
     id="layer1">
    <path
       style="fill:#f2f8fa;stroke-width:0.331578"
       d="m 34.65956,60.155473 c -0.427359,-0.42288 -0.217649,-4.429857 0.295454,-5.645331 1.793493,-4.248557 6.860556,-5.890109 10.54219,-3.415298 3.325287,2.235272 6.262944,2.079931 9.381996,-0.496114 2.850522,-2.354271 9.094192,0.689833 10.181872,4.964182 0.489657,1.924263 0.478677,3.91893 -0.02429,4.416654 -0.435195,0.430641 -29.947069,0.601544 -30.3772,0.175907 z M 18.999638,59.172347 c -1.139698,-1.127777 0.673113,-5.769046 2.831372,-7.249068 2.008785,-1.377521 5.611297,-1.547379 7.478583,-0.352618 1.613699,1.03251 2.978393,1.318065 4.377761,0.916031 1.243247,-0.357182 1.283639,-0.243744 0.53377,1.499008 -0.302247,0.702443 -0.639741,2.167742 -0.749986,3.256203 l -0.200442,1.979034 -7.021196,0.08883 c -3.861657,0.0489 -7.124096,-0.013 -7.249862,-0.137432 z m 47.510298,-0.175823 c -0.223593,-0.221252 -0.409825,-1.077625 -0.41385,-1.903048 -0.0038,-0.825416 -0.304019,-2.147788 -0.666658,-2.938596 -0.362629,-0.79081 -0.659327,-1.481565 -0.659327,-1.535015 0,-0.05344 0.865723,-0.07748 1.923838,-0.05342 1.544559,0.03514 2.229841,-0.133686 3.475956,-0.856316 4.594344,-2.664284 10.867805,0.916248 10.532067,6.011094 l -0.09883,1.49971 -6.843328,0.08892 c -5.042058,0.06555 -6.950334,-0.01692 -7.249865,-0.313348 z M 30.60408,51.415552 c -5.522893,-3.015192 -5.293962,-12.129026 0.346497,-13.794189 3.870719,-1.142706 7.138721,1.87498 7.138721,6.591921 0,5.107956 -4.098303,9.05134 -7.485218,7.202268 z m 16.666349,-0.24131 C 41.578168,48.566391 40.268949,38.844575 45.0361,34.582818 c 5.20636,-4.654408 12.400799,-0.58853 12.400799,7.008204 0,7.033743 -5.145124,11.883695 -10.16647,9.58322 z m 17.897385,0.07278 C 60.637796,49.037923 60.2081,40.307639 64.518682,38.058413 c 1.649251,-0.860561 4.243092,-0.758539 5.692012,0.223888 6.014154,4.077834 1.345628,16.080122 -5.04288,12.964718 z"
       id="people" />
  </g>
</svg>
