<svg width="130" height="130" viewBox="0 0 130 130" fill="none" xmlns="http://www.w3.org/2000/svg">
<path d="M78.0328 96.3687L83.2467 76.9176H75.7596V70.083H88.763L90.0351 72.8168L83.8411 96.3687H78.0328Z" fill="#DA2237"/>
<path d="M78.0328 96.3687L83.2467 76.9176H75.7596V70.083H88.763L90.0351 72.8168L83.8411 96.3687H78.0328Z" fill="white"/>
<path fill-rule="evenodd" clip-rule="evenodd" d="M34.351 45.8204C33.6726 45.8256 32.9953 45.7478 32.328 45.588C31.692 45.4614 31.0799 45.1785 30.524 44.7542C29.9807 44.3068 29.5408 43.6735 29.2518 42.9225C28.9092 41.9422 28.7484 40.8696 28.7826 39.7923V36.252C28.8004 35.6749 28.8812 35.1041 29.0224 34.557C29.1452 33.994 29.3585 33.472 29.6481 33.0261C29.9529 32.5593 30.3741 32.2494 30.8368 32.1513C30.3741 31.8643 29.9782 31.4208 29.6898 30.8664C29.4626 30.3971 29.3266 29.8621 29.2935 29.3081C29.2935 28.7477 29.2414 28.1462 29.2414 27.5311V24.5649C29.1959 23.42 29.4376 22.2869 29.9296 21.339C30.3879 20.5349 31.0201 19.93 31.744 19.603C32.5099 19.2428 33.3183 19.0623 34.132 19.0699H37.9694C38.7901 19.06 39.6056 19.2405 40.3782 19.603C41.0975 19.9346 41.7254 20.5389 42.1822 21.339C42.6742 22.2869 42.916 23.42 42.8704 24.5649V27.5311C42.8651 27.8651 42.8442 28.1983 42.8079 28.529C42.7735 28.9926 42.7036 29.4506 42.5993 29.8959C42.4999 30.3321 42.333 30.7369 42.1092 31.0851C41.888 31.42 41.5793 31.6345 41.2437 31.6865C41.5192 31.7502 41.7821 31.8859 42.0168 32.0855C42.2515 32.2851 42.4531 32.5445 42.6098 32.8484C42.8834 33.3995 43.0679 34.0182 43.152 34.6664C43.228 35.2031 43.2698 35.7472 43.2771 36.293V39.806C43.3471 41.1679 43.092 42.5247 42.5472 43.688C42.0725 44.5362 41.3924 45.1482 40.6181 45.424C39.783 45.7275 38.9194 45.8747 38.0528 45.8614L34.351 45.8204ZM36.6868 40.011H35.3312C34.9616 40.074 34.5878 39.9466 34.2884 39.6556C34.1798 39.4785 34.0991 39.275 34.0508 39.0569C34.0024 38.8387 33.9875 38.6101 34.0069 38.3844V36.7168C34.0074 36.4936 34.0356 36.272 34.0903 36.0606C34.1372 35.8637 34.2154 35.682 34.3197 35.5275C34.4237 35.3688 34.5564 35.2467 34.7055 35.1721C34.8895 35.0861 35.0838 35.0444 35.279 35.0491H36.7076C36.8765 35.0353 37.0456 35.0711 37.2025 35.1539C37.3595 35.2367 37.5003 35.3643 37.6149 35.5275C37.828 35.8594 37.9395 36.2832 37.9277 36.7168V38.3844C37.9434 38.7968 37.875 39.2073 37.7296 39.5736C37.6357 39.8606 37.2812 40.011 36.6868 40.011ZM36.6868 29.2398H35.279C35.1416 29.2592 35.0027 29.2426 34.8702 29.1909C34.7377 29.1393 34.6144 29.0537 34.5074 28.939C34.3024 28.4618 34.2218 27.9098 34.278 27.3671V26.2599C34.278 25.6038 34.3614 25.2074 34.5387 25.0707C34.7696 24.9276 35.024 24.8618 35.279 24.8793H36.6868C36.9232 24.8735 37.1579 24.9341 37.375 25.057C37.5836 25.18 37.6879 25.5764 37.6879 26.2599V27.3671C37.6925 27.7197 37.6716 28.0722 37.6253 28.4196C37.6176 28.541 37.5914 28.6591 37.5485 28.767C37.5055 28.875 37.4465 28.9707 37.375 29.0484C37.1643 29.1971 36.9254 29.2636 36.6868 29.2398Z" fill="#DA2237"/>
<path fill-rule="evenodd" clip-rule="evenodd" d="M34.351 45.8204C33.6726 45.8256 32.9953 45.7478 32.328 45.588C31.692 45.4614 31.0799 45.1785 30.524 44.7542C29.9807 44.3068 29.5408 43.6735 29.2518 42.9225C28.9092 41.9422 28.7484 40.8696 28.7826 39.7923V36.252C28.8004 35.6749 28.8812 35.1041 29.0224 34.557C29.1452 33.994 29.3585 33.472 29.6481 33.0261C29.9529 32.5593 30.3741 32.2494 30.8368 32.1513C30.3741 31.8643 29.9782 31.4208 29.6898 30.8664C29.4626 30.3971 29.3266 29.8621 29.2935 29.3081C29.2935 28.7477 29.2414 28.1462 29.2414 27.5311V24.5649C29.1959 23.42 29.4376 22.2869 29.9296 21.339C30.3879 20.5349 31.0201 19.93 31.744 19.603C32.5099 19.2428 33.3183 19.0623 34.132 19.0699H37.9694C38.7901 19.06 39.6056 19.2405 40.3782 19.603C41.0975 19.9346 41.7254 20.5389 42.1822 21.339C42.6742 22.2869 42.916 23.42 42.8704 24.5649V27.5311C42.8651 27.8651 42.8442 28.1983 42.8079 28.529C42.7735 28.9926 42.7036 29.4506 42.5993 29.8959C42.4999 30.3321 42.333 30.7369 42.1092 31.0851C41.888 31.42 41.5793 31.6345 41.2437 31.6865C41.5192 31.7502 41.7821 31.8859 42.0168 32.0855C42.2515 32.2851 42.4531 32.5445 42.6098 32.8484C42.8834 33.3995 43.0679 34.0182 43.152 34.6664C43.228 35.2031 43.2698 35.7472 43.2771 36.293V39.806C43.3471 41.1679 43.092 42.5247 42.5472 43.688C42.0725 44.5362 41.3924 45.1482 40.6181 45.424C39.783 45.7275 38.9194 45.8747 38.0528 45.8614L34.351 45.8204ZM36.6868 40.011H35.3312C34.9616 40.074 34.5878 39.9466 34.2884 39.6556C34.1798 39.4785 34.0991 39.275 34.0508 39.0569C34.0024 38.8387 33.9875 38.6101 34.0069 38.3844V36.7168C34.0074 36.4936 34.0356 36.272 34.0903 36.0606C34.1372 35.8637 34.2154 35.682 34.3197 35.5275C34.4237 35.3688 34.5564 35.2467 34.7055 35.1721C34.8895 35.0861 35.0838 35.0444 35.279 35.0491H36.7076C36.8765 35.0353 37.0456 35.0711 37.2025 35.1539C37.3595 35.2367 37.5003 35.3643 37.6149 35.5275C37.828 35.8594 37.9395 36.2832 37.9277 36.7168V38.3844C37.9434 38.7968 37.875 39.2073 37.7296 39.5736C37.6357 39.8606 37.2812 40.011 36.6868 40.011ZM36.6868 29.2398H35.279C35.1416 29.2592 35.0027 29.2426 34.8702 29.1909C34.7377 29.1393 34.6144 29.0537 34.5074 28.939C34.3024 28.4618 34.2218 27.9098 34.278 27.3671V26.2599C34.278 25.6038 34.3614 25.2074 34.5387 25.0707C34.7696 24.9276 35.024 24.8618 35.279 24.8793H36.6868C36.9232 24.8735 37.1579 24.9341 37.375 25.057C37.5836 25.18 37.6879 25.5764 37.6879 26.2599V27.3671C37.6925 27.7197 37.6716 28.0722 37.6253 28.4196C37.6176 28.541 37.5914 28.6591 37.5485 28.767C37.5055 28.875 37.4465 28.9707 37.375 29.0484C37.1643 29.1971 36.9254 29.2636 36.6868 29.2398Z" fill="white"/>
<path fill-rule="evenodd" clip-rule="evenodd" d="M37.2499 1.01307C42.2452 1.02065 47.1572 2.69026 51.5259 5.86549C55.8946 9.04073 59.5769 13.6177 62.2278 19.1675C64.8788 24.7174 66.4116 31.0585 66.6828 37.5969C66.9539 44.1352 65.9545 50.6568 63.7781 56.5506L116.188 16.0491L120.234 24.8793V24.975L87.4178 52.0125C93.4899 52.9094 99.1989 56.2594 103.754 61.5983C108.309 66.9373 111.485 74.001 112.842 81.811C114.199 89.621 113.669 97.7907 111.327 105.189C108.984 112.587 104.944 118.847 99.7672 123.101C94.5901 127.356 88.5317 129.395 82.4312 128.937C76.3307 128.478 70.49 125.543 65.7182 120.54C60.9464 115.537 57.4796 108.712 55.798 101.011C54.1164 93.3108 54.3033 85.1153 56.3327 77.56L36.3948 93.9629V93.8809L30.743 82.1665L35.717 78.3255C31.8444 78.1935 28.0295 77.063 24.4902 74.9985C20.9508 72.9339 17.7564 69.9758 15.0892 66.2929C9.70251 58.8551 6.79052 48.9169 6.99379 38.6646C7.19707 28.4123 10.4989 18.6858 16.1731 11.6248C21.8472 4.56376 29.4287 0.746612 37.2499 1.01307ZM92.2712 64.8892C89.4954 62.456 86.2313 61.1571 82.8921 61.1571C78.4256 61.1535 74.1404 63.473 70.9771 67.6067C67.8139 71.7404 66.0311 77.3504 66.02 83.2054C66.0097 87.5825 66.9905 91.8652 68.8381 95.5112C70.6858 99.1573 73.3172 102.003 76.3993 103.687C79.4813 105.372 82.8753 105.819 86.1516 104.974C89.4279 104.128 92.4391 102.027 94.8039 98.9367C97.1688 95.8464 98.7809 91.9057 99.4361 87.6136C100.091 83.3216 99.7603 78.8712 98.4848 74.8259C97.2094 70.7806 95.0469 67.3225 92.2712 64.8892ZM45.3656 14.0314C42.5852 11.6046 39.3181 10.3136 35.9777 10.3217H35.9986C31.5228 10.3253 27.2314 12.6585 24.0676 16.8084C20.9037 20.9582 19.1265 26.585 19.1265 32.452C19.1265 36.8307 20.1174 41.111 21.9739 44.7512C23.8303 48.3914 26.4689 51.2278 29.5556 52.9016C32.6423 54.5754 36.0384 55.0112 39.3141 54.154C42.5899 53.2968 45.598 51.185 47.9578 48.0859C50.3176 44.9868 51.923 41.0398 52.5709 36.7442C53.2188 32.4487 52.88 27.9977 51.5974 23.9547C50.3148 19.9116 48.1461 16.4582 45.3656 14.0314Z" fill="#DA2237"/>
<path fill-rule="evenodd" clip-rule="evenodd" d="M37.2499 1.01307C42.2452 1.02065 47.1572 2.69026 51.5259 5.86549C55.8946 9.04073 59.5769 13.6177 62.2278 19.1675C64.8788 24.7174 66.4116 31.0585 66.6828 37.5969C66.9539 44.1352 65.9545 50.6568 63.7781 56.5506L116.188 16.0491L120.234 24.8793V24.975L87.4178 52.0125C93.4899 52.9094 99.1989 56.2594 103.754 61.5983C108.309 66.9373 111.485 74.001 112.842 81.811C114.199 89.621 113.669 97.7907 111.327 105.189C108.984 112.587 104.944 118.847 99.7672 123.101C94.5901 127.356 88.5317 129.395 82.4312 128.937C76.3307 128.478 70.49 125.543 65.7182 120.54C60.9464 115.537 57.4796 108.712 55.798 101.011C54.1164 93.3108 54.3033 85.1153 56.3327 77.56L36.3948 93.9629V93.8809L30.743 82.1665L35.717 78.3255C31.8444 78.1935 28.0295 77.063 24.4902 74.9985C20.9508 72.9339 17.7564 69.9758 15.0892 66.2929C9.70251 58.8551 6.79052 48.9169 6.99379 38.6646C7.19707 28.4123 10.4989 18.6858 16.1731 11.6248C21.8472 4.56376 29.4287 0.746612 37.2499 1.01307ZM92.2712 64.8892C89.4954 62.456 86.2313 61.1571 82.8921 61.1571C78.4256 61.1535 74.1404 63.473 70.9771 67.6067C67.8139 71.7404 66.0311 77.3504 66.02 83.2054C66.0097 87.5825 66.9905 91.8652 68.8381 95.5112C70.6858 99.1573 73.3172 102.003 76.3993 103.687C79.4813 105.372 82.8753 105.819 86.1516 104.974C89.4279 104.128 92.4391 102.027 94.8039 98.9367C97.1688 95.8464 98.7809 91.9057 99.4361 87.6136C100.091 83.3216 99.7603 78.8712 98.4848 74.8259C97.2094 70.7806 95.0469 67.3225 92.2712 64.8892ZM45.3656 14.0314C42.5852 11.6046 39.3181 10.3136 35.9777 10.3217H35.9986C31.5228 10.3253 27.2314 12.6585 24.0676 16.8084C20.9037 20.9582 19.1265 26.585 19.1265 32.452C19.1265 36.8307 20.1174 41.111 21.9739 44.7512C23.8303 48.3914 26.4689 51.2278 29.5556 52.9016C32.6423 54.5754 36.0384 55.0112 39.3141 54.154C42.5899 53.2968 45.598 51.185 47.9578 48.0859C50.3176 44.9868 51.923 41.0398 52.5709 36.7442C53.2188 32.4487 52.88 27.9977 51.5974 23.9547C50.3148 19.9116 48.1461 16.4582 45.3656 14.0314Z" fill="#DA2237"/>
<path fill-rule="evenodd" clip-rule="evenodd" d="M122.497 23.198L126.219 20.1498C132.226 15.2289 127.366 7.41021 122.33 11.3059L118.43 14.3268L122.476 23.157L122.497 23.198Z" fill="#DA2237"/>
<path fill-rule="evenodd" clip-rule="evenodd" d="M122.497 23.198L126.219 20.1498C132.226 15.2289 127.366 7.41021 122.33 11.3059L118.43 14.3268L122.476 23.157L122.497 23.198Z" fill="#DA2237"/>
<path d="M1.62872 113.25C2.00341 114.112 2.50534 114.869 3.10525 115.474C3.70516 116.08 4.39104 116.523 5.12288 116.777C5.85473 117.031 6.61791 117.092 7.3679 116.956C8.1179 116.82 8.83971 116.489 9.49124 115.984L34.2363 95.7126V95.6306L28.5949 83.9298V83.8341L3.84983 102.971C2.53851 103.981 1.58405 105.629 1.1936 107.556C0.803147 109.483 1.00821 111.534 1.76428 113.264L1.62872 113.25Z" fill="#DA2237"/>
<path d="M36.6868 40.011H35.279H35.3312M36.6868 40.011C37.2812 40.011 37.6357 39.8606 37.7296 39.5736C37.875 39.2073 37.9434 38.7968 37.9277 38.3844V36.7168C37.9395 36.2832 37.828 35.8594 37.6149 35.5275C37.5003 35.3643 37.3595 35.2367 37.2025 35.1539C37.0456 35.0711 36.8765 35.0353 36.7076 35.0491H35.279C35.0838 35.0444 34.8895 35.0861 34.7055 35.1721C34.5564 35.2467 34.4237 35.3688 34.3197 35.5275C34.2154 35.682 34.1372 35.8637 34.0903 36.0606C34.0356 36.272 34.0074 36.4936 34.0069 36.7168V38.3844C33.9875 38.6101 34.0024 38.8387 34.0508 39.0569C34.0991 39.275 34.1798 39.4785 34.2884 39.6556C34.5878 39.9466 34.9616 40.074 35.3312 40.011M36.6868 40.011H35.3312M1.62872 113.25C2.00341 114.112 2.50534 114.869 3.10525 115.474C3.70516 116.08 4.39104 116.523 5.12288 116.777C5.85473 117.031 6.61791 117.092 7.3679 116.956C8.1179 116.82 8.83971 116.489 9.49124 115.984L34.2363 95.7126V95.6306L28.5949 83.9298V83.8341L3.84983 102.971C2.53851 103.981 1.58405 105.629 1.1936 107.556C0.803147 109.483 1.00821 111.534 1.76428 113.264L1.62872 113.25ZM37.2499 1.01307C42.2452 1.02065 47.1572 2.69026 51.5259 5.86549C55.8946 9.04073 59.5769 13.6177 62.2278 19.1675C64.8788 24.7174 66.4116 31.0585 66.6828 37.5969C66.9539 44.1352 65.9545 50.6568 63.7781 56.5506L116.188 16.0491L120.234 24.8793V24.975L87.4178 52.0125C93.4899 52.9094 99.1989 56.2594 103.754 61.5983C108.309 66.9373 111.485 74.001 112.842 81.811C114.199 89.621 113.669 97.7907 111.327 105.189C108.984 112.587 104.944 118.847 99.7672 123.101C94.5901 127.356 88.5317 129.395 82.4312 128.937C76.3307 128.478 70.49 125.543 65.7182 120.54C60.9464 115.537 57.4796 108.712 55.798 101.011C54.1164 93.3108 54.3033 85.1153 56.3327 77.56L36.3948 93.9629V93.8809L30.743 82.1665L35.717 78.3255C31.8444 78.1935 28.0295 77.063 24.4902 74.9985C20.9508 72.9339 17.7564 69.9758 15.0892 66.2929C9.70251 58.8551 6.79052 48.9169 6.99379 38.6646C7.19707 28.4123 10.4989 18.6858 16.1731 11.6248C21.8472 4.56376 29.4287 0.746612 37.2499 1.01307ZM122.497 23.198L126.219 20.1498C132.226 15.2289 127.366 7.41021 122.33 11.3059L118.43 14.3268L122.476 23.157L122.497 23.198ZM78.0328 96.3687L83.2467 76.9176H75.7596V70.083H88.763L90.0351 72.8168L83.8411 96.3687H78.0328ZM82.8921 61.1571C86.2313 61.1571 89.4954 62.456 92.2712 64.8892C95.0469 67.3225 97.2094 70.7806 98.4848 74.8259C99.7603 78.8712 100.091 83.3216 99.4361 87.6136C98.7809 91.9057 97.1688 95.8464 94.8039 98.9367C92.4391 102.027 89.4279 104.128 86.1516 104.974C82.8753 105.819 79.4813 105.372 76.3993 103.687C73.3172 102.003 70.6858 99.1573 68.8381 95.5112C66.9905 91.8652 66.0097 87.5825 66.02 83.2054C66.0311 77.3504 67.8139 71.7404 70.9771 67.6067C74.1404 63.473 78.4256 61.1535 82.8921 61.1571ZM34.351 45.8204C33.6726 45.8256 32.9953 45.7478 32.328 45.588C31.692 45.4614 31.0799 45.1785 30.524 44.7542C29.9807 44.3068 29.5408 43.6735 29.2518 42.9225C28.9092 41.9422 28.7484 40.8696 28.7826 39.7923V36.252C28.8004 35.6749 28.8812 35.1041 29.0224 34.557C29.1452 33.994 29.3585 33.472 29.6481 33.0261C29.9529 32.5593 30.3741 32.2494 30.8368 32.1513C30.3741 31.8643 29.9782 31.4208 29.6898 30.8664C29.4626 30.3971 29.3266 29.8621 29.2935 29.3081C29.2935 28.7477 29.2414 28.1462 29.2414 27.5311V24.5649C29.1959 23.42 29.4376 22.2869 29.9296 21.339C30.3879 20.5349 31.0201 19.93 31.744 19.603C32.5099 19.2428 33.3183 19.0623 34.132 19.0699H37.9694C38.7901 19.06 39.6056 19.2405 40.3782 19.603C41.0975 19.9346 41.7254 20.5389 42.1822 21.339C42.6742 22.2869 42.916 23.42 42.8704 24.5649V27.5311C42.8651 27.8651 42.8442 28.1983 42.8079 28.529C42.7735 28.9926 42.7036 29.4506 42.5993 29.8959C42.4999 30.3321 42.333 30.7369 42.1092 31.0851C41.888 31.42 41.5793 31.6345 41.2437 31.6865C41.5192 31.7502 41.7821 31.8859 42.0168 32.0855C42.2515 32.2851 42.4531 32.5445 42.6098 32.8484C42.8834 33.3995 43.0679 34.0182 43.152 34.6664C43.228 35.2031 43.2698 35.7472 43.2771 36.293V39.806C43.3471 41.1679 43.092 42.5247 42.5472 43.688C42.0725 44.5362 41.3924 45.1482 40.6181 45.424C39.783 45.7275 38.9194 45.8747 38.0528 45.8614L34.351 45.8204ZM35.279 29.2398H36.6868C36.9254 29.2636 37.1643 29.1971 37.375 29.0484C37.4465 28.9707 37.5055 28.875 37.5485 28.767C37.5914 28.6591 37.6176 28.541 37.6253 28.4196C37.6716 28.0722 37.6925 27.7197 37.6879 27.3671V26.2599C37.6879 25.5764 37.5836 25.18 37.375 25.057C37.1579 24.9341 36.9232 24.8735 36.6868 24.8793H35.279C35.024 24.8618 34.7696 24.9276 34.5387 25.0707C34.3614 25.2074 34.278 25.6038 34.278 26.2599V27.3671C34.2218 27.9098 34.3024 28.4618 34.5074 28.939C34.6144 29.0537 34.7377 29.1393 34.8702 29.1909C35.0027 29.2426 35.1416 29.2592 35.279 29.2398ZM35.9777 10.3217C39.3181 10.3136 42.5852 11.6046 45.3656 14.0314C48.1461 16.4582 50.3148 19.9116 51.5974 23.9547C52.88 27.9977 53.2188 32.4487 52.5709 36.7442C51.923 41.0398 50.3176 44.9868 47.9578 48.0859C45.598 51.185 42.5899 53.2968 39.3141 54.154C36.0384 55.0112 32.6423 54.5754 29.5556 52.9016C26.4689 51.2278 23.8303 48.3914 21.9739 44.7512C20.1174 41.111 19.1265 36.8307 19.1265 32.452C19.1265 26.585 20.9037 20.9582 24.0676 16.8084C27.2314 12.6585 31.5228 10.3253 35.9986 10.3217H35.9777Z" stroke="black" stroke-width="0.5"/>
</svg>
