<svg width="130" height="130" viewBox="0 0 130 130" fill="none" xmlns="http://www.w3.org/2000/svg">
<path d="M63.424 1H63.4333V1.00214C69.5813 1.0032 75.5229 1.91525 81.1313 3.61438C82.0281 3.88564 82.9333 4.18467 83.8448 4.5072C88.4573 6.14332 92.8177 8.3145 96.8563 10.946C97.1406 11.1307 97.225 11.5173 97.0458 11.8089C97.0271 11.8377 97.0052 11.8666 96.9833 11.8922L92.5167 17.7639C92.3188 18.0244 91.9583 18.08 91.6958 17.8974L91.6854 17.891C90.55 17.1722 89.3771 16.4919 88.1729 15.8522C86.9594 15.2093 85.726 14.6134 84.475 14.0698L84.4729 14.0687C78.0083 11.2567 70.8948 9.70179 63.4229 9.70179H63.4167V9.69965C55.9729 9.69965 48.8771 11.2493 42.425 14.0473C41.3708 14.5044 40.3365 14.9936 39.326 15.5115C34.1104 18.1857 29.3729 21.7068 25.2844 25.8986L25.2802 25.9028L25.2521 25.9295C23.8958 27.3222 22.6115 28.7885 21.4063 30.3221C20.1938 31.8653 19.0573 33.479 18.0083 35.1536C12.6156 43.7614 9.48646 54.0053 9.48646 64.9989V65.0053H9.48438C9.48438 72.637 10.9958 79.912 13.725 86.527C14.1708 87.6088 14.6479 88.6683 15.1531 89.7042C17.7615 95.0504 21.1958 99.9086 25.2854 104.1L25.2896 104.105L25.3125 104.129C26.6708 105.521 28.1031 106.839 29.6 108.075C31.1052 109.32 32.6792 110.484 34.3135 111.559C42.7094 117.088 52.7021 120.296 63.424 120.296H63.4302V120.299C70.876 120.298 77.9698 118.75 84.4219 115.952C85.4771 115.495 86.5104 115.005 87.5208 114.487C92.7365 111.813 97.475 108.292 101.563 104.1L101.568 104.095L101.599 104.064C102.953 102.673 104.236 101.208 105.441 99.6769C106.654 98.1337 107.79 96.5189 108.839 94.8443C114.232 86.2365 117.36 75.9926 117.36 65V64.9893H117.364C117.363 60.3768 116.809 55.8892 115.767 51.6002C115.594 50.8858 115.411 50.1927 115.222 49.522C114.22 45.9902 112.881 42.6026 111.249 39.3998C111.107 39.1232 111.189 38.7878 111.428 38.6084L117.2 33.9297C117.463 33.7161 117.845 33.762 118.052 34.0322C118.071 34.0557 118.086 34.0813 118.1 34.1069H118.102L118.106 34.1155L118.113 34.1283C118.801 35.4077 119.452 36.7181 120.057 38.0542C120.664 39.3912 121.225 40.7508 121.74 42.1274C124.393 49.2315 125.847 56.9443 125.847 65.0011V65.0075H125.845C125.844 73.8406 124.096 82.2594 120.938 89.9135C120.426 91.1556 119.874 92.3827 119.283 93.5905C116.259 99.7901 112.286 105.412 107.564 110.255L107.559 110.259L107.536 110.281C105.961 111.894 104.302 113.421 102.567 114.855C100.824 116.295 99.0031 117.641 97.1146 118.885C87.3958 125.285 75.8302 129 63.4229 129H63.4167V128.998C54.801 128.997 46.5896 127.205 39.124 123.967C37.9125 123.442 36.7156 122.875 35.5365 122.27C29.4906 119.17 24.0063 115.096 19.2823 110.255L19.2781 110.25L19.249 110.219C17.6781 108.606 16.1917 106.908 14.7958 105.132C13.3917 103.345 12.0781 101.479 10.8656 99.5423C4.62396 89.576 1 77.7195 1 65V64.9925H1.00208C1.00313 56.1594 2.75104 47.7417 5.90833 40.0865C6.42083 38.8444 6.97292 37.6184 7.56354 36.4084C10.5865 30.2099 14.5604 24.5882 19.2823 19.7449L19.2865 19.7407L19.3135 19.7161C20.8865 18.1045 22.5458 16.5784 24.2781 15.1463C26.0219 13.7067 27.8417 12.36 29.7313 11.1168C39.4531 4.71439 51.0177 1 63.424 1ZM97.9448 18.4068L115.414 1.29369L116.577 12.8352L129 14.4275L110.294 33.0112L101.192 33.8122L64.8708 68.4463L61.524 65.4913L95.9271 28.6464L97.9448 18.4068ZM63.424 44.7418H63.4396V44.7439C64.6146 44.745 65.7583 44.8486 66.8594 45.0472C66.9875 45.0707 67.1688 45.1059 67.3979 45.154H67.401C68.3177 45.3462 69.2156 45.6057 70.0875 45.9261C70.4042 46.0415 70.5688 46.3982 70.4552 46.7228C70.4333 46.7869 70.4 46.8446 70.3615 46.8958L70.3625 46.8969L65.4865 53.309C65.35 53.4895 65.1333 53.5696 64.926 53.5418V53.5439L64.8979 53.5397L64.6813 53.514L64.6625 53.5108L64.475 53.4905L64.4594 53.4884C64.1344 53.4596 63.7896 53.4435 63.424 53.4435H63.4177V53.4403C61.8646 53.4414 60.3813 53.7661 59.0333 54.3513C58.8104 54.4485 58.5938 54.551 58.3865 54.6568C57.301 55.2132 56.3115 55.949 55.4542 56.8279L55.45 56.8322L55.4219 56.8578C55.1469 57.1419 54.8865 57.442 54.6406 57.7549C54.3875 58.0764 54.15 58.4149 53.9302 58.7652C52.8052 60.5615 52.1531 62.7028 52.1531 64.9989V65.0053H52.15C52.151 66.5998 52.4677 68.1195 53.0385 69.5004C53.1333 69.73 53.2333 69.9522 53.3365 70.1636C53.8792 71.2775 54.5979 72.291 55.4542 73.1689L55.4583 73.1742L55.4833 73.2009C55.7604 73.4829 56.0531 73.752 56.3583 74.003C56.6719 74.2625 57.0021 74.507 57.3438 74.7324C59.0969 75.8847 61.1854 76.5543 63.424 76.5543H63.4302V76.5565C64.9854 76.5565 66.4688 76.2318 67.8146 75.6466C68.0385 75.5494 68.2542 75.4468 68.4615 75.3411C69.5479 74.7836 70.5365 74.0478 71.3927 73.1689L71.3979 73.1635L71.4188 73.1432C71.5708 72.9863 71.7188 72.8271 71.8552 72.6701C71.9917 72.5131 72.1344 72.3369 72.2802 72.1468C72.9865 71.2284 73.5604 70.1989 73.9688 69.0914C74.0156 68.9622 74.1 68.8575 74.2052 68.7881L82.0844 62.3995C82.3479 62.1859 82.7292 62.2318 82.9375 62.502C83.0104 62.5971 83.051 62.7071 83.0635 62.8192H83.0667L83.0719 62.8673L83.074 62.9004L83.099 63.1674V63.1748H83.101L83.124 63.4653V63.4707C83.1604 63.9833 83.1813 64.4927 83.1813 64.9989V65.0053H83.1781C83.1771 67.8002 82.624 70.4637 81.625 72.8859C81.4646 73.2757 81.2886 73.6644 81.1011 74.05C80.1417 76.0139 78.8854 77.7942 77.3927 79.3236L77.3885 79.3278L77.3552 79.3567C76.8636 79.8586 76.3469 80.336 75.8083 80.7813C75.2563 81.2363 74.6792 81.6635 74.0833 82.0554C71.0063 84.0803 67.3479 85.2561 63.4229 85.2561H63.4167V85.2529C60.6906 85.2518 58.0927 84.6848 55.7313 83.6606C55.351 83.4961 54.9708 83.3156 54.5958 83.1234C52.6802 82.1398 50.9438 80.8518 49.4521 79.3225L49.4479 79.3182L49.4135 79.2798C48.926 78.7768 48.4635 78.2481 48.0302 77.6971C47.5854 77.131 47.1698 76.5405 46.7865 75.9285C44.8115 72.7748 43.6646 69.023 43.6646 65V64.9925H43.6667C43.6677 62.1987 44.2219 59.5352 45.2198 57.1141C45.3813 56.7243 45.5563 56.3356 45.7438 55.9501C46.701 53.9893 47.9573 52.21 49.451 50.6786L49.4521 50.6775L49.451 50.6764L49.4552 50.6722C49.95 50.166 50.4781 49.68 51.0365 49.2187C51.5885 48.7626 52.1646 48.3365 52.7615 47.9435C55.8406 45.9176 59.501 44.7418 63.424 44.7418ZM64.4583 53.4884C64.1385 53.4478 63.9052 53.1573 63.925 52.8284L64.4583 53.4884ZM63.424 22.6904H63.4344V22.6925C67.126 22.6936 70.7021 23.1913 74.099 24.1215C74.6521 24.2731 75.2021 24.4365 75.7469 24.6117C78.5438 25.5066 81.2167 26.7027 83.7271 28.1605C84.0188 28.3303 84.1219 28.7116 83.9563 29.0106C83.9406 29.0362 83.925 29.0629 83.9063 29.0864L83.9031 29.0896L79.3781 35.0404C79.1885 35.2881 78.8521 35.3501 78.5938 35.1973L78.5792 35.1899C77.9667 34.862 77.3281 34.5448 76.6646 34.2458C75.9969 33.9435 75.326 33.6659 74.6531 33.4138C71.1542 32.1045 67.3708 31.39 63.4229 31.39H63.4167V31.3879C58.8927 31.3879 54.5813 32.3309 50.6594 34.0311C50.0406 34.3003 49.4115 34.5982 48.776 34.9229L48.7281 34.9453C45.5792 36.5675 42.7167 38.6981 40.2427 41.2335L40.2385 41.2378L40.2146 41.2623C39.3948 42.1049 38.6167 42.9956 37.8865 43.9248C37.15 44.8624 36.4594 45.8439 35.8219 46.8617C32.5458 52.0926 30.6448 58.3188 30.6448 64.9989V65.0053H30.6427C30.6427 69.6435 31.5625 74.0649 33.2208 78.0847C33.4917 78.7426 33.7823 79.3876 34.0885 80.0156C35.6729 83.2633 37.7604 86.2152 40.2458 88.7633L40.25 88.7676C41.0854 89.6252 41.9615 90.4326 42.8698 91.1823C43.7844 91.9373 44.7417 92.6454 45.7344 93.299C50.8365 96.6588 56.9104 98.6068 63.425 98.6068H63.4313V98.6089C67.9552 98.6089 72.2677 97.6669 76.1896 95.9667C76.8313 95.688 77.4604 95.3911 78.0729 95.0761C81.2406 93.4517 84.1198 91.3126 86.6052 88.7633L86.6094 88.7591C87.4458 87.9015 88.2333 87.0044 88.9646 86.0731C89.701 85.1344 90.3917 84.154 91.0292 83.1351C94.3073 77.9032 96.2083 71.6769 96.2083 64.9989H96.2063V64.9829H96.2083C96.2083 62.91 96.0229 60.8766 95.6708 58.9051C95.6177 58.6104 95.5552 58.2878 95.4833 57.945C95.1427 56.3057 94.6854 54.7155 94.126 53.1862C94.026 52.9117 94.126 52.6105 94.3521 52.4525L100.251 47.6701C100.515 47.4565 100.896 47.5024 101.103 47.7726C101.134 47.8143 101.159 47.8559 101.179 47.9008L101.184 47.9115L101.189 47.92L101.19 47.919C101.497 48.6334 101.793 49.3767 102.075 50.1467C102.353 50.9071 102.609 51.6707 102.84 52.4354C104.043 56.4071 104.692 60.6267 104.692 64.9979V65.0043H104.689C104.689 70.8428 103.533 76.408 101.446 81.467C101.108 82.2861 100.742 83.0978 100.351 83.8987C98.3521 87.9976 95.7261 91.7141 92.6042 94.9137L92.599 94.918L92.5761 94.9404C91.5365 96.0031 90.4427 97.0112 89.299 97.9564C88.1469 98.909 86.9427 99.7986 85.6948 100.62C79.2677 104.851 71.6229 107.306 63.4229 107.306H63.4167C57.7219 107.305 52.2938 106.121 47.3583 103.981C46.5594 103.634 45.7677 103.259 44.9865 102.858C40.9896 100.808 37.3635 98.1166 34.2417 94.9159L34.2375 94.9116L34.2083 94.8796C33.174 93.8169 32.1938 92.6977 31.275 91.5272C30.3458 90.346 29.4781 89.1115 28.676 87.8321C24.549 81.2438 22.1542 73.4049 22.1542 64.9989V64.9925H22.1563C22.1573 59.154 23.3135 53.5888 25.401 48.5288C25.7385 47.7096 26.1042 46.898 26.4948 46.097C28.4927 42.0014 31.1188 38.2859 34.2406 35.0841L34.2417 35.0831L34.2406 35.082L34.2448 35.0777L34.2719 35.0521C35.3094 33.9895 36.4031 32.9834 37.5448 32.0404C38.6979 31.0878 39.901 30.1982 41.149 29.3769C47.5781 25.1456 55.225 22.6904 63.424 22.6904Z" fill="#DA2237" stroke="black" stroke-width="0.5"/>
</svg>
