<svg width="130" height="130" viewBox="0 0 130 130" fill="none" xmlns="http://www.w3.org/2000/svg">
<path fill-rule="evenodd" clip-rule="evenodd" d="M54.1295 123.024C55.73 127.556 56.0928 128.375 56.6049 128.638C58.2908 129.486 60.745 128.667 63.5405 126.357C64.9063 125.217 65.0984 125.129 65.5252 125.48L65.013 113.2C64.949 113.2 63.4125 109.487 61.5986 104.926C60.9409 103.282 60.2074 101.455 59.4877 99.6612C58.2225 96.5084 56.9999 93.4617 56.3062 91.7099L54.3002 86.7686L54.3855 84.7804C54.4709 83.1431 54.7056 82.2659 55.6873 79.5175C57.1598 75.3949 59.5499 70.6291 60.6169 69.6057C62.0681 68.2608 63.5832 63.7288 64.1808 58.9045C64.5435 55.9222 64.3088 50.133 63.6472 45.8642C62.9003 41.0399 61.8333 36.9173 59.998 31.6837C55.666 19.4036 49.1358 9.57951 42.0722 4.75519C34.603 -0.361508 25.0639 -0.244555 17.3814 5.07681C14.031 7.41588 8.71722 13.4974 6.47648 17.5908C4.25709 21.6257 2.63522 26.1869 1.71759 30.9819C0.351808 37.9991 0.970678 48.4372 3.27543 57.6473C4.53451 62.6763 7.07401 69.9566 9.05867 74.1669C13.092 82.8214 18.6405 89.0492 23.8475 90.8035C26.0029 91.5344 28.6064 91.4175 30.399 90.5403C31.6154 89.9263 32.2556 89.8094 34.0909 89.8094C36.545 89.8094 38.7217 90.1602 40.3863 90.8327C41.5173 91.2713 43.3739 92.8502 43.7154 93.6104C43.9074 94.1074 49.0718 108.639 54.1295 123.024ZM51.4833 84.0787C49.584 83.6986 46.3616 85.219 44.5903 87.2949L44.5857 87.3004C43.6299 88.4353 43.6062 88.4635 42.0722 87.8797C41.496 87.6458 39.8528 87.3826 38.4657 87.2949L35.9261 87.0902L45.8281 80.2777C51.2699 76.5352 55.794 73.4652 55.8794 73.4652C55.9647 73.4359 55.6019 74.3131 55.0684 75.4241C53.724 78.1725 52.593 81.4765 52.4649 82.9676L52.3582 84.2249L51.4833 84.0787Z" fill="#DA2237"/>
<path fill-rule="evenodd" clip-rule="evenodd" d="M70.4335 99.9551C67.5098 107.235 65.077 113.2 65.013 113.2L65.5252 125.48C69.153 128.667 71.3938 129.573 73.3358 128.667C73.9546 128.345 74.168 127.878 75.4698 124.194C77.177 119.282 79.2897 113.317 83.2377 102.265C84.8382 97.7914 86.14 94.0489 86.14 93.9612C86.14 93.8735 86.4601 93.4057 86.8442 92.9379C88.466 90.8912 91.6031 89.8094 95.9352 89.8094C97.7491 89.8094 98.4107 89.9263 99.6271 90.5403C102.465 91.9438 105.901 91.4467 109.508 89.0784C114.267 85.9499 118.684 79.7806 122.12 71.477C127.049 59.5478 129.29 48.6126 128.97 37.9114C128.629 26.4208 124.617 16.8014 116.785 8.70236C111.706 3.43947 106.371 1.07117 99.7978 1.10041C96.0632 1.12965 93.4597 1.71441 90.3653 3.29328C82.4267 7.29893 74.8723 17.9124 69.9 32.0638C65.6959 44.0515 64.5222 56.0684 66.827 64.0504C67.228 65.482 67.6708 66.7205 68.1064 67.6633C68.5515 68.6268 68.9889 69.2816 69.3665 69.518C70.2414 70.1028 73.1864 76.0966 74.5308 79.9853C75.3204 82.2659 75.5552 83.3185 75.6192 84.8096L75.7259 86.7394L70.4335 99.9551ZM91.5391 87.2949C90.1306 87.3826 88.4234 87.675 87.7618 87.9089C87.1003 88.1428 86.4814 88.3475 86.396 88.3475C86.3107 88.3182 85.8839 87.8797 85.4357 87.3534C83.7285 85.2775 80.4421 83.6986 78.5428 84.0787L77.6678 84.2249L77.5398 82.9091C77.4331 81.3888 76.3661 78.2895 74.9576 75.4241C74.4455 74.3131 74.0827 73.4359 74.1467 73.4652C74.232 73.4652 78.7562 76.5352 84.198 80.2777L94.0999 87.0902L91.5391 87.2949Z" fill="#DA2237"/>
<path d="M65.013 113.2C64.949 113.2 63.4125 109.487 61.5986 104.926C60.9409 103.282 60.2074 101.455 59.4877 99.6612C58.2225 96.5084 56.9999 93.4617 56.3062 91.7099L54.3002 86.7686L54.3855 84.7804C54.4709 83.1431 54.7056 82.2659 55.6873 79.5175C57.1598 75.3949 59.5499 70.6291 60.6169 69.6057C62.0681 68.2608 63.5832 63.7288 64.1808 58.9045C64.5435 55.9222 64.3088 50.133 63.6472 45.8642C62.9003 41.0399 61.8333 36.9173 59.998 31.6837C55.666 19.4036 49.1358 9.57951 42.0722 4.75519C34.603 -0.361508 25.0639 -0.244555 17.3814 5.07681C14.031 7.41588 8.71722 13.4974 6.47648 17.5908C4.25709 21.6257 2.63522 26.1869 1.71759 30.9819C0.351808 37.9991 0.970678 48.4372 3.27543 57.6473C4.53451 62.6763 7.07401 69.9566 9.05867 74.1669C13.092 82.8214 18.6405 89.0492 23.8475 90.8035C26.0029 91.5344 28.6064 91.4175 30.399 90.5403C31.6154 89.9263 32.2556 89.8094 34.0909 89.8094C36.545 89.8094 38.7217 90.1602 40.3863 90.8327C41.5173 91.2713 43.3739 92.8502 43.7154 93.6104C43.9074 94.1074 49.0718 108.639 54.1295 123.024C55.73 127.556 56.0928 128.375 56.6049 128.638C58.2908 129.486 60.745 128.667 63.5405 126.357C64.9063 125.217 65.0984 125.129 65.5252 125.48M65.013 113.2C65.077 113.2 67.5098 107.235 70.4335 99.9551L75.7259 86.7394L75.6192 84.8096C75.5552 83.3185 75.3204 82.2659 74.5308 79.9853C73.1864 76.0966 70.2414 70.1028 69.3665 69.518C68.9889 69.2816 68.5515 68.6268 68.1064 67.6633M65.013 113.2L65.5252 125.48M99.6271 90.5403C102.465 91.9438 105.901 91.4467 109.508 89.0784C114.267 85.9499 118.684 79.7806 122.12 71.477C127.049 59.5478 129.29 48.6126 128.97 37.9114C128.629 26.4208 124.617 16.8014 116.785 8.70236C111.706 3.43947 106.371 1.07117 99.7978 1.10041C96.0632 1.12965 93.4597 1.71441 90.3653 3.29328C82.4267 7.29893 74.8723 17.9124 69.9 32.0638C65.6959 44.0515 64.5222 56.0684 66.827 64.0504C67.228 65.482 67.6708 66.7205 68.1064 67.6633M99.6271 90.5403C98.4107 89.9263 97.7491 89.8094 95.9352 89.8094C91.6031 89.8094 88.466 90.8912 86.8442 92.9379C86.4601 93.4057 86.14 93.8735 86.14 93.9612C86.14 94.0489 84.8382 97.7914 83.2377 102.265C79.2897 113.317 77.177 119.282 75.4698 124.194C74.168 127.878 73.9546 128.345 73.3358 128.667C71.3938 129.573 69.153 128.667 65.5252 125.48M99.6271 90.5403L68.1064 67.6633M44.5903 87.2949C46.3616 85.219 49.584 83.6986 51.4833 84.0787L52.3582 84.2249L52.4649 82.9676C52.593 81.4765 53.724 78.1725 55.0684 75.4241C55.6019 74.3131 55.9647 73.4359 55.8794 73.4652C55.794 73.4652 51.2699 76.5352 45.8281 80.2777L35.9261 87.0902L38.4657 87.2949C39.8528 87.3826 41.496 87.6458 42.0722 87.8797C43.6062 88.4635 43.6299 88.4353 44.5857 87.3004M44.5903 87.2949L44.5857 87.3004M44.5903 87.2949C44.5888 87.2967 44.5872 87.2986 44.5857 87.3004M87.7618 87.9089C88.4234 87.675 90.1306 87.3826 91.5391 87.2949L94.0999 87.0902L84.198 80.2777C78.7562 76.5352 74.232 73.4652 74.1467 73.4652C74.0827 73.4359 74.4455 74.3131 74.9576 75.4241C76.3661 78.2895 77.4331 81.3888 77.5398 82.9091L77.6678 84.2249L78.5428 84.0787C80.4421 83.6986 83.7285 85.2775 85.4357 87.3534C85.8839 87.8797 86.3107 88.3182 86.396 88.3475C86.4814 88.3475 87.1003 88.1428 87.7618 87.9089Z" stroke="#222D32" stroke-width="0.5"/>
<path d="M85.5211 89.1662C84.8382 87.9967 82.9816 86.3886 81.4664 85.6284C80.2927 85.0729 78.308 84.8682 77.4117 85.2775C77.0063 85.453 76.9636 85.336 76.9636 84.3419C76.9422 82.2368 75.2777 77.851 72.7382 73.1729C72.0767 71.9741 71.3938 70.7461 71.2444 70.4537C70.9883 69.9859 71.031 69.9859 71.5645 70.3075C73.0583 71.2139 97.1516 87.8797 97.3863 88.1721C97.4076 88.2014 95.7431 88.2306 93.6517 88.2306C89.7678 88.2306 87.7831 88.6399 86.6308 89.6633C86.0332 90.1896 86.1399 90.248 85.5211 89.1662Z" fill="#121212"/>
<path d="M43.3526 89.6633C42.3069 88.6399 40.2369 88.2306 36.3529 88.2306C34.2829 88.2306 32.5757 88.2014 32.5757 88.1721C32.5757 88.1136 33.3226 87.5874 34.2402 86.9441C35.1365 86.3301 40.8344 82.4122 46.8737 78.2603C52.913 74.0793 58.1414 70.5122 58.4615 70.3075C58.995 69.9859 59.0377 69.9859 58.7816 70.4537C58.6322 70.7461 57.9707 71.9449 57.3091 73.1436C54.727 77.9095 53.0624 82.3245 53.0624 84.4004C53.0624 85.4822 53.0837 85.4822 51.2698 84.9852C49.8827 84.6051 46.4896 86.564 44.8891 88.6692C44.2915 89.4586 43.8007 90.1019 43.8007 90.0726C43.7794 90.0726 43.5873 89.8972 43.3526 89.6633Z" fill="#121212"/>
</svg>
