<svg width="130" height="130" viewBox="0 0 130 130" fill="none" xmlns="http://www.w3.org/2000/svg">
<path fill-rule="evenodd" clip-rule="evenodd" d="M114.135 1.00003H119.235C119.723 0.99798 120.2 1.11904 120.602 1.34684C121.004 1.57464 121.311 1.89824 121.483 2.27402H129V8.91163H120.382C110.415 23.894 99.8442 39.6153 87.9866 52.8776C87.377 53.5581 86.9233 54.0043 86.5663 54.3552C85.6797 55.2269 85.3905 55.5112 84.7935 57.337C83.2033 62.3159 83.1639 66.5078 83.1155 71.6395C83.112 72.0095 83.1084 72.3845 83.1041 72.7651C83.8463 74.4628 85.0843 77.0721 86.5014 80.0598C90.4126 88.3037 95.6902 99.4277 95.6902 102.233V128.987H80.593V102.233C80.593 101.076 77.9722 98.2971 75.1384 95.2929C72.6073 92.6096 69.9065 89.746 68.7511 87.6966C67.4647 87.7347 66.484 87.7728 65.5038 87.8112C64.5235 87.8493 63.5428 87.8874 62.2564 87.9259C61.0353 89.9626 58.4259 92.7249 55.9773 95.3165C53.1424 98.3176 50.5227 101.09 50.5227 102.246V129H35.3949V102.233C35.3949 99.3779 40.8357 87.9128 44.7643 79.634C46.0948 76.8304 47.2517 74.3923 47.9652 72.7778C47.9432 71.9464 47.9274 71.1418 47.9117 70.3594V70.3584C47.8196 65.6863 47.7429 61.7889 46.4155 57.4897C45.8382 55.6188 45.5561 55.3528 44.6942 54.5408C44.3066 54.1753 43.8009 53.6991 43.0985 52.9161C31.2408 39.6534 20.685 23.9448 10.7186 8.96257H1V2.31225H9.13756C9.31153 1.93546 9.62159 1.61143 10.026 1.3837C10.4305 1.15597 10.9102 1.03541 11.4006 1.03823H16.5002C16.9882 1.03622 17.4655 1.15724 17.8673 1.38504C18.2691 1.61288 18.5765 1.93648 18.7476 2.31225H111.872C112.046 1.93546 112.356 1.61143 112.761 1.3837C113.165 1.15597 113.645 1.03541 114.135 1.03823V1.00003ZM76.5323 41.1695H76.0207C69.2316 39.5772 62.5819 39.246 56.0718 41.1695H54.5221C47.8227 35.2858 41.4784 28.6493 34.9297 21.7995C30.8725 17.5553 26.737 13.2292 22.3901 8.94984H108.664C104.337 13.2101 100.228 17.5165 96.1955 21.7423C89.6402 28.6123 83.2883 35.2695 76.5323 41.1695ZM65.527 11.931C68.5563 11.9285 71.5188 12.6646 74.0393 14.0462C76.5598 15.4277 78.5251 17.3927 79.6864 19.6925C80.848 21.9924 81.1534 24.5237 80.5643 26.966C79.9752 29.4088 78.518 31.6525 76.3768 33.4141C74.2357 35.1761 71.507 36.3761 68.5359 36.8629C65.5648 37.3493 62.4847 37.101 59.6855 36.1486C56.8864 35.1962 54.4938 33.5831 52.8103 31.5129C51.1268 29.4423 50.2284 27.0084 50.2284 24.5184C50.2264 22.8658 50.6207 21.2294 51.3885 19.7024C52.1562 18.1754 53.2829 16.7874 54.7039 15.6185C56.1245 14.4495 57.812 13.5222 59.669 12.8894C61.526 12.2567 63.5165 11.931 65.527 11.931Z" fill="#DA2237" stroke="black" stroke-width="0.5"/>
</svg>
