<svg width="130" height="130" viewBox="0 0 130 130" fill="none" xmlns="http://www.w3.org/2000/svg">
<path fill-rule="evenodd" clip-rule="evenodd" d="M81.1438 26.0336C81.8701 26.1794 82.5844 26.3461 83.2745 26.5336C86.5069 27.4191 86.6158 27.4712 87.4875 30.4298C90.8167 41.7954 88.3228 38.2013 97.8263 47.9418C109.109 49.5253 121.155 44.4415 124.484 34.6698L129 37.0137C124.618 48.3169 110.732 56.1717 99.1943 62.1202C97.8141 63.5474 96.1919 63.7141 94.267 61.8493L87.887 56.8489L84.0856 65.9643L97.1846 82.7367C97.7899 83.5076 97.572 84.5494 96.7004 85.0911L96.6398 85.1327L98.9763 87.9142L104.569 107.906L109.012 123.897H114.606V128.324C111.276 128.793 98.2015 130.199 97.0636 126.689L84.6667 94.6753L83.5287 93.4564L83.226 93.6439C82.3302 94.2065 81.0711 94.0398 80.4174 93.2689L70.5628 81.7158L62.4274 90.6541C61.7495 91.4041 60.4904 91.5396 59.6187 90.9562L59.5461 90.9041L52.0281 99.009C49.8974 100.072 47.7667 100.092 45.636 99.009L9.2444 85.3098L3.91762 90.7999L1 87.0183C3.66339 82.8617 6.90788 79.278 11.1088 76.6632L45.9023 84.9869L47.4882 82.9034L47.1614 82.6846C46.3139 82.122 46.1323 81.1011 46.7255 80.351L58.8076 64.4121C58.856 64.3496 58.9166 64.2767 58.9771 64.2246L61.1562 59.4845L63.9528 44.6915C57.2096 45.0353 50.7085 45.7124 45.7207 48.5669C47.5124 60.4221 49.5342 69.798 38.7354 75.486L36.6773 71.6315C41.8467 66.8915 35.5877 49.0357 34.8371 41.8996C34.8008 40.7432 35.4061 39.9619 37.0405 39.639L68.5411 31.857C69.0375 28.7838 70.7444 26.5857 74.4126 25.7835C76.5797 25.3356 79.0009 25.6064 81.1438 26.0336ZM86.3979 1C92.9595 1 98.2863 6.01088 98.2863 12.1989C98.2863 18.387 92.9595 23.3979 86.3979 23.3979C79.8363 23.3979 74.5095 18.387 74.5095 12.1989C74.5095 6.01088 79.8363 1 86.3979 1Z" fill="#DA2237" stroke="black" stroke-width="0.5"/>
</svg>
