<svg width="130" height="130" viewBox="0 0 130 130" fill="none" xmlns="http://www.w3.org/2000/svg">
<path d="M26.2412 128.901C23.6602 128.154 21.8536 125.583 21.8536 122.679C21.8536 120.218 23.3247 117.702 25.312 116.817C25.8024 116.596 26.0089 116.347 25.9314 116.098C25.8282 115.877 25.7766 114.273 25.7766 112.559V109.407L15.7885 109.324L5.77457 109.241L4.35507 108.384C2.60006 107.333 1.41284 105.397 1.18056 103.241C0.948277 101.333 0.948277 28.942 1.18056 27.034C1.41284 24.8773 2.60006 22.9417 4.35507 21.8909L5.77457 21.0338L15.7885 20.9508L25.7766 20.8679V17.7156C25.7766 16.0013 25.8282 14.3975 25.9314 14.1763C26.0089 13.9274 25.8024 13.6786 25.312 13.4574C24.3571 13.0426 23.0408 11.66 22.4988 10.554C21.4665 8.4525 21.6471 5.9086 22.9376 3.91772C26.267 -1.28069 33.7774 1.26321 33.8032 7.59532C33.829 10.0839 32.3579 12.5725 30.3706 13.4574C29.8802 13.6786 29.6738 13.9274 29.7512 14.1763C29.8544 14.3975 29.906 16.0013 29.906 17.7433V20.8955H36.1002H42.2944V17.7433C42.2944 16.0013 42.346 14.3975 42.4492 14.1763C42.5267 13.9274 42.3202 13.6786 41.8298 13.4574C40.8749 13.0426 39.5586 11.66 39.0166 10.554C37.9843 8.4525 38.1649 5.9086 39.4554 3.91772C42.7848 -1.28069 50.2952 1.26321 50.321 7.59532C50.3468 10.0839 48.8757 12.5725 46.8884 13.4574C46.398 13.6786 46.1916 13.9274 46.269 14.1763C46.3722 14.3975 46.4238 16.0013 46.4238 17.7433V20.8955H66.0387H85.6536V17.7433C85.6536 16.0013 85.7052 14.3975 85.8085 14.1763C85.8859 13.9274 85.6794 13.6786 85.189 13.4574C84.2341 13.0426 82.9178 11.66 82.3758 10.554C81.3435 8.4525 81.5242 5.9086 82.8146 3.91772C86.144 -1.28069 93.6544 1.26321 93.6802 7.59532C93.706 10.0839 92.2349 12.5725 90.2476 13.4574C89.7572 13.6786 89.5508 13.9274 89.6282 14.1763C89.7314 14.3975 89.783 16.0013 89.783 17.7433V20.8955H94.9449H100.107V17.7433C100.107 16.0013 100.158 14.3975 100.262 14.1763C100.339 13.9274 100.132 13.6786 99.6421 13.4574C98.6872 13.0426 97.3709 11.66 96.8289 10.554C95.7966 8.4525 95.9772 5.9086 97.2677 3.91772C100.597 -1.28069 108.107 1.26321 108.133 7.59532C108.159 10.0839 106.688 12.5725 104.701 13.4574C104.21 13.6786 104.004 13.9274 104.081 14.1763C104.184 14.3975 104.236 16.0013 104.236 17.7156V20.8679L114.25 20.9508L124.238 21.0338L125.658 21.8909C127.413 22.9417 128.6 24.8773 128.832 27.034C129.064 28.942 129.064 101.333 128.832 103.241C128.6 105.397 127.413 107.333 125.658 108.384L124.238 109.241L114.25 109.324L104.236 109.407V112.559C104.236 114.273 104.184 115.877 104.081 116.098C104.004 116.347 104.21 116.596 104.701 116.817C105.114 117.011 105.836 117.564 106.301 118.034C109.062 120.937 108.727 125.666 105.578 127.988C101.604 130.919 96.1837 127.85 96.1837 122.679C96.1837 120.218 97.6548 117.702 99.6421 116.817C100.132 116.596 100.339 116.347 100.262 116.098C100.158 115.877 100.107 114.273 100.107 112.531V109.379H94.9449H89.783V112.531C89.783 114.273 89.7314 115.877 89.6282 116.098C89.5508 116.347 89.7572 116.596 90.2476 116.817C90.6606 117.011 91.3832 117.564 91.8478 118.034C94.6093 120.937 94.2738 125.666 91.1251 127.988C87.1505 130.919 81.7306 127.85 81.7306 122.679C81.7306 120.218 83.2017 117.702 85.189 116.817C85.6794 116.596 85.8859 116.347 85.8085 116.098C85.7052 115.877 85.6536 114.273 85.6536 112.531V109.379H66.0387H46.4238V112.531C46.4238 114.273 46.3722 115.877 46.269 116.098C46.1916 116.347 46.398 116.596 46.8884 116.817C47.3013 117.011 48.024 117.564 48.4886 118.034C51.2501 120.937 50.9146 125.666 47.7659 127.988C43.7913 130.919 38.3714 127.85 38.3714 122.679C38.3714 120.218 39.8425 117.702 41.8298 116.817C42.3202 116.596 42.5267 116.347 42.4492 116.098C42.346 115.877 42.2944 114.273 42.2944 112.531V109.379H36.1002H29.906V112.531C29.906 114.273 29.8544 115.877 29.7512 116.098C29.6738 116.347 29.8802 116.596 30.3706 116.817C31.403 117.287 32.6676 118.642 33.3128 119.969C33.9322 121.297 33.9839 123.73 33.4161 125.196C32.2805 128.099 29.106 129.758 26.2412 128.901ZM29.3124 124.255C29.7254 123.841 29.906 123.343 29.906 122.596C29.906 121.186 29.2092 120.44 27.8413 120.44C26.4734 120.44 25.7766 121.186 25.7766 122.652C25.7766 124.089 26.4734 124.864 27.7639 124.864C28.3833 124.864 28.9253 124.642 29.3124 124.255ZM45.8302 124.255C46.2432 123.841 46.4238 123.343 46.4238 122.596C46.4238 121.186 45.727 120.44 44.3591 120.44C42.9912 120.44 42.2944 121.186 42.2944 122.652C42.2944 124.089 42.9912 124.864 44.2817 124.864C44.9011 124.864 45.4431 124.642 45.8302 124.255ZM89.1894 124.255C89.6024 123.841 89.783 123.343 89.783 122.596C89.783 121.186 89.0862 120.44 87.7183 120.44C87.0215 120.44 86.5053 120.633 86.1698 120.993C85.8343 121.352 85.6536 121.905 85.6536 122.652C85.6536 124.089 86.3504 124.864 87.6409 124.864C88.2603 124.864 88.8023 124.642 89.1894 124.255ZM103.643 124.255C104.055 123.841 104.236 123.343 104.236 122.596C104.236 121.186 103.539 120.44 102.171 120.44C101.475 120.44 100.958 120.633 100.623 120.993C100.287 121.352 100.107 121.905 100.107 122.652C100.107 124.089 100.804 124.864 102.094 124.864C102.713 124.864 103.255 124.642 103.643 124.255ZM124.29 104.347L124.883 103.766V65.082C124.883 26.7852 124.883 26.4257 124.367 25.8727C123.851 25.3197 123.515 25.3197 65.0064 25.3197C6.49723 25.3197 6.16171 25.3197 5.64553 25.8727C5.12934 26.4257 5.12934 26.7852 5.12934 65.1373C5.12934 103.489 5.12934 103.849 5.64553 104.402C6.16171 104.955 6.49723 104.955 64.9289 104.955H123.696L124.29 104.347ZM29.3899 9.28204C29.7254 8.92257 29.906 8.36955 29.906 7.62297C29.906 6.15746 29.2092 5.41088 27.8413 5.41088C26.4734 5.41088 25.7766 6.15746 25.7766 7.62297C25.7766 8.36955 25.9573 8.92257 26.2928 9.28204C26.6283 9.6415 27.1445 9.83506 27.8413 9.83506C28.5382 9.83506 29.0543 9.6415 29.3899 9.28204ZM45.9077 9.28204C46.2432 8.92257 46.4238 8.36955 46.4238 7.62297C46.4238 6.15746 45.727 5.41088 44.3591 5.41088C42.9912 5.41088 42.2944 6.15746 42.2944 7.62297C42.2944 9.08848 42.9912 9.83506 44.3591 9.83506C45.056 9.83506 45.5721 9.6415 45.9077 9.28204ZM89.2669 9.28204C89.6024 8.92257 89.783 8.36955 89.783 7.62297C89.783 6.15746 89.0862 5.41088 87.7183 5.41088C86.3504 5.41088 85.6536 6.15746 85.6536 7.62297C85.6536 9.08848 86.3504 9.83506 87.7183 9.83506C88.4152 9.83506 88.9313 9.6415 89.2669 9.28204ZM103.72 9.28204C104.055 8.92257 104.236 8.36955 104.236 7.62297C104.236 6.15746 103.539 5.41088 102.171 5.41088C100.804 5.41088 100.107 6.15746 100.107 7.62297C100.107 9.08848 100.804 9.83506 102.171 9.83506C102.868 9.83506 103.384 9.6415 103.72 9.28204Z" fill="#DA2237" stroke="black" stroke-width="0.5"/>
<path d="M11.1946 102.604C11.0656 102.549 10.6268 102.438 10.2397 102.355C8.97502 102.051 7.7878 100.669 7.4781 99.1203C7.09096 97.2124 7.09096 33.0894 7.4781 31.1815C7.7878 29.5501 8.9234 28.2782 10.4203 27.8357C11.8914 27.421 118.147 27.421 119.593 27.8357C120.754 28.1675 121.632 28.9418 122.251 30.1584C122.664 30.905 122.69 33.8913 122.69 65.1371C122.69 98.7885 122.69 99.2862 122.174 100.226C121.503 101.443 120.573 102.162 119.309 102.466C118.405 102.715 11.8398 102.826 11.1946 102.604ZM25.7767 89.636C25.7767 84.8523 25.8283 80.76 25.9316 80.5388C26.009 80.2899 25.8025 80.041 25.3122 79.8198C22.4732 78.5479 20.9762 74.2343 22.3699 71.3309C22.9893 70.0313 24.2798 68.6211 25.2347 68.2064C25.9058 67.9022 25.9058 67.8469 25.9058 65.1371C25.9058 62.4273 25.9058 62.372 25.2347 62.0678C24.2798 61.653 22.9893 60.2428 22.3699 58.9432C20.9762 56.0399 22.4732 51.7263 25.3122 50.4543C25.8025 50.2331 26.009 49.9843 25.9316 49.7354C25.8283 49.5142 25.7767 45.4218 25.7767 40.6382V31.9557H18.5502H11.3236V41.8825V51.8092L14.8079 51.9198C18.0082 52.0028 18.3179 52.0581 18.8599 52.6388L19.4535 53.2748V65.1371V76.9994L18.8599 77.6354C18.3179 78.2161 18.0082 78.2714 14.8079 78.3543L11.3236 78.4649V88.3917V98.3184H18.5502H25.7767V89.636ZM42.2945 94.0601C42.2945 91.7098 42.3461 89.6083 42.4494 89.3871C42.5268 89.1382 42.3203 88.8894 41.83 88.6682C39.8685 87.7833 38.3715 85.2671 38.3715 82.8338C38.3715 80.4281 39.8685 77.8842 41.7525 77.0547C42.4236 76.7505 42.4236 76.6952 42.4236 73.9854C42.4236 71.2756 42.4236 71.2203 41.7525 70.9162C39.8685 70.0866 38.3715 67.5427 38.3715 65.1371C38.3715 62.7314 39.8685 60.1875 41.7525 59.358C42.4236 59.0538 42.4236 58.9985 42.4236 56.2887C42.4236 53.5789 42.4236 53.5236 41.7525 53.2195C40.7976 52.8047 39.5071 51.3945 38.8877 50.0949C37.494 47.1915 38.991 42.8779 41.83 41.606C42.3203 41.3848 42.5268 41.1359 42.4494 40.8871C42.3461 40.6658 42.2945 38.5644 42.2945 36.214V31.9557H36.1003H29.9062V40.6382C29.9062 45.4218 29.8545 49.5142 29.7513 49.7354C29.6739 49.9843 29.8804 50.2331 30.3707 50.4543C33.2097 51.7263 34.7066 56.0399 33.313 58.9432C32.6935 60.2428 31.4031 61.653 30.4482 62.0678C29.7771 62.372 29.7771 62.4273 29.7771 65.1371C29.7771 67.8469 29.7771 67.9022 30.4482 68.2064C31.4031 68.6211 32.6935 70.0313 33.313 71.3309C34.7066 74.2343 33.2097 78.5479 30.3707 79.8198C29.8804 80.041 29.6739 80.2899 29.7513 80.5388C29.8545 80.76 29.9062 84.8523 29.9062 89.636V98.3184H36.1003H42.2945V94.0601ZM62.8901 88.1981L62.8127 78.0778L61.3416 77.5801C58.58 76.6676 55.9475 74.4555 54.4764 71.801C52.2826 67.8192 52.2826 62.4549 54.4764 58.4732C55.9475 55.8187 58.58 53.6066 61.3416 52.6941L62.8127 52.1964L62.8901 42.0761L62.9418 31.9557H54.6829H46.424V36.214C46.424 38.5644 46.3723 40.6658 46.2691 40.8871C46.1917 41.1359 46.3982 41.3848 46.8885 41.606C49.7275 42.8779 51.2244 47.1915 49.8308 50.0949C49.2113 51.3945 47.9209 52.8047 46.966 53.2195C46.2949 53.5236 46.2949 53.5789 46.2949 56.2887C46.2949 58.9985 46.2949 59.0538 46.966 59.358C48.85 60.1875 50.3469 62.7314 50.3469 65.1371C50.3469 67.5427 48.85 70.0866 46.966 70.9162C46.2949 71.2203 46.2949 71.2756 46.2949 73.9854C46.2949 76.6952 46.2949 76.7505 46.966 77.0547C47.9209 77.4695 49.2113 78.8797 49.8308 80.1793C51.2244 83.0826 49.7275 87.3962 46.8885 88.6682C46.3982 88.8894 46.1917 89.1382 46.2691 89.3871C46.3723 89.6083 46.424 91.7098 46.424 94.0601V98.3184H54.6829H62.9418L62.8901 88.1981ZM83.589 94.0601C83.589 91.7098 83.6406 89.6083 83.7439 89.3871C83.8213 89.1382 83.6148 88.8894 83.1244 88.6682C80.2854 87.3962 78.7885 83.0826 80.1822 80.1793C80.8016 78.8797 82.0921 77.4695 83.047 77.0547C83.718 76.7505 83.718 76.6952 83.718 73.9854C83.718 71.2756 83.718 71.2203 83.047 70.9162C81.1629 70.0866 79.666 67.5427 79.666 65.1371C79.666 62.7314 81.1629 60.1875 83.047 59.358C83.718 59.0538 83.718 58.9985 83.718 56.2887C83.718 53.5789 83.718 53.5236 83.047 53.2195C82.0921 52.8047 80.8016 51.3945 80.1822 50.0949C78.7885 47.1915 80.2854 42.8779 83.1244 41.606C83.6148 41.3848 83.8213 41.1359 83.7439 40.8871C83.6406 40.6658 83.589 38.5644 83.589 36.214V31.9557H75.3301H67.0712L67.1228 42.0761L67.2002 52.1964L68.6714 52.6941C70.6587 53.3577 72.104 54.2978 73.6783 56.0122C76.0528 58.5838 77.1367 61.4318 77.1367 65.1371C77.1367 68.8423 76.0528 71.6904 73.6783 74.2619C72.104 75.9763 70.6587 76.9165 68.6714 77.5801L67.2002 78.0778L67.1228 88.1981L67.0712 98.3184H75.3301H83.589V94.0601ZM100.107 89.636C100.107 84.8523 100.158 80.76 100.262 80.5388C100.339 80.2899 100.133 80.041 99.6422 79.8198C96.8032 78.5479 95.3063 74.2343 96.7 71.3309C97.3194 70.0313 98.6099 68.6211 99.5648 68.2064C100.236 67.9022 100.236 67.8469 100.236 65.1371C100.236 62.4273 100.236 62.372 99.5648 62.0678C98.6099 61.653 97.3194 60.2428 96.7 58.9432C95.3063 56.0399 96.8032 51.7263 99.6422 50.4543C100.133 50.2331 100.339 49.9843 100.262 49.7354C100.158 49.5142 100.107 45.4218 100.107 40.6382V31.9557H93.9126H87.7184V36.214C87.7184 38.5644 87.6668 40.6658 87.5636 40.8871C87.4862 41.1359 87.6926 41.3848 88.183 41.606C91.022 42.8779 92.5189 47.1915 91.1252 50.0949C90.5058 51.3945 89.2154 52.8047 88.2604 53.2195C87.5894 53.5236 87.5894 53.5789 87.5894 56.2887C87.5894 58.9985 87.5894 59.0538 88.2604 59.358C90.1445 60.1875 91.6414 62.7314 91.6414 65.1371C91.6414 67.5427 90.1445 70.0866 88.2604 70.9162C87.5894 71.2203 87.5894 71.2756 87.5894 73.9854C87.5894 76.6952 87.5894 76.7505 88.2604 77.0547C89.2154 77.4695 90.5058 78.8797 91.1252 80.1793C92.5189 83.0826 91.022 87.3962 88.183 88.6682C87.6926 88.8894 87.4862 89.1382 87.5636 89.3871C87.6668 89.6083 87.7184 91.7098 87.7184 94.0601V98.3184H93.9126H100.107V89.636ZM118.689 88.3917V78.4649L115.205 78.3543C112.005 78.2714 111.695 78.2161 111.153 77.6354L110.559 76.9994V65.1371V53.2748L111.153 52.6388C111.695 52.0581 112.005 52.0028 115.205 51.9198L118.689 51.8092V41.8825V31.9557H111.463H104.236V40.6382C104.236 45.4218 104.185 49.5142 104.081 49.7354C104.004 49.9843 104.21 50.2331 104.701 50.4543C107.54 51.7263 109.037 56.0399 107.643 58.9432C107.024 60.2428 105.733 61.653 104.778 62.0678C104.107 62.372 104.107 62.4273 104.107 65.1371C104.107 67.8469 104.107 67.9022 104.778 68.2064C105.733 68.6211 107.024 70.0313 107.643 71.3309C109.037 74.2343 107.54 78.5479 104.701 79.8198C104.21 80.041 104.004 80.2899 104.081 80.5388C104.185 80.76 104.236 84.8523 104.236 89.636V98.3184H111.463H118.689V88.3917ZM45.8304 84.4376C46.2433 84.0228 46.424 83.5251 46.424 82.7785C46.424 81.3683 45.7271 80.6217 44.3592 80.6217C42.9914 80.6217 42.2945 81.3683 42.2945 82.8338C42.2945 84.2716 42.9914 85.0459 44.2818 85.0459C44.9012 85.0459 45.4432 84.8247 45.8304 84.4376ZM87.1248 84.4376C87.5378 84.0228 87.7184 83.5251 87.7184 82.7785C87.7184 81.3683 87.0216 80.6217 85.6537 80.6217C84.9569 80.6217 84.4407 80.8153 84.1052 81.1747C83.7697 81.5342 83.589 82.0872 83.589 82.8338C83.589 84.2716 84.2858 85.0459 85.5763 85.0459C86.1957 85.0459 86.7377 84.8247 87.1248 84.4376ZM29.3126 75.5892C29.7255 75.1744 29.9062 74.6767 29.9062 73.9301C29.9062 72.5199 29.2093 71.7733 27.8414 71.7733C26.4736 71.7733 25.7767 72.5199 25.7767 73.9854C25.7767 75.4233 26.4736 76.1975 27.764 76.1975C28.3834 76.1975 28.9254 75.9763 29.3126 75.5892ZM103.643 75.5892C104.056 75.1744 104.236 74.6767 104.236 73.9301C104.236 72.5199 103.539 71.7733 102.172 71.7733C101.475 71.7733 100.958 71.9669 100.623 72.3264C100.287 72.6858 100.107 73.2389 100.107 73.9854C100.107 75.4233 100.804 76.1975 102.094 76.1975C102.714 76.1975 103.256 75.9763 103.643 75.5892ZM15.4531 65.1371V56.2887H13.3884H11.3236V65.1371V73.9854H13.3884H15.4531V65.1371ZM118.689 65.1371V56.2887H116.625H114.56V65.1371V73.9854H116.625H118.689V65.1371ZM62.9418 65.1371C62.9418 58.722 62.8643 56.5652 62.6321 56.5652C61.8578 56.5652 59.9995 57.8648 58.8381 59.1921C57.3412 60.9894 56.7476 62.6208 56.7476 65.1371C56.7476 67.6533 57.3412 69.2847 58.8381 71.0544C59.9737 72.4093 61.7804 73.6536 62.6321 73.7089C62.8643 73.7089 62.9418 71.8286 62.9418 65.1371ZM68.852 73.0453C70.4522 72.1605 72.3362 69.9207 72.8524 68.2617C73.3944 66.6026 73.3686 63.6716 72.8524 61.9849C72.1556 59.8004 68.9036 56.5652 67.3809 56.5652C67.1486 56.5652 67.0712 58.722 67.0712 65.1371C67.0712 70.8609 67.1486 73.7089 67.3293 73.7089C67.4841 73.7089 68.1552 73.4048 68.852 73.0453ZM45.8304 66.7408C46.2433 66.3261 46.424 65.8284 46.424 65.0818C46.424 63.6716 45.7271 62.925 44.3592 62.925C43.6624 62.925 43.1462 63.1185 42.8107 63.478C42.4752 63.8375 42.2945 64.3905 42.2945 65.1371C42.2945 66.5749 42.9914 67.3492 44.2818 67.3492C44.9012 67.3492 45.4432 67.128 45.8304 66.7408ZM87.1248 66.7408C87.5378 66.3261 87.7184 65.8284 87.7184 65.0818C87.7184 63.6716 87.0216 62.925 85.6537 62.925C84.9569 62.925 84.4407 63.1185 84.1052 63.478C83.7697 63.8375 83.589 64.3905 83.589 65.1371C83.589 66.5749 84.2858 67.3492 85.5763 67.3492C86.1957 67.3492 86.7377 67.128 87.1248 66.7408ZM29.3126 57.8925C29.7255 57.4777 29.9062 56.98 29.9062 56.2334C29.9062 54.8232 29.2093 54.0766 27.8414 54.0766C27.1446 54.0766 26.6284 54.2702 26.2929 54.6297C25.9574 54.9891 25.7767 55.5421 25.7767 56.2887C25.7767 57.7266 26.4736 58.5008 27.764 58.5008C28.3834 58.5008 28.9254 58.2796 29.3126 57.8925ZM103.643 57.8925C104.056 57.4777 104.236 56.98 104.236 56.2334C104.236 54.8232 103.539 54.0766 102.172 54.0766C101.475 54.0766 100.958 54.2702 100.623 54.6297C100.287 54.9891 100.107 55.5421 100.107 56.2887C100.107 57.7266 100.804 58.5008 102.094 58.5008C102.714 58.5008 103.256 58.2796 103.643 57.8925ZM45.8304 49.0441C46.2433 48.6294 46.424 48.1316 46.424 47.3851C46.424 45.9749 45.7271 45.2283 44.3592 45.2283C43.6624 45.2283 43.1462 45.4218 42.8107 45.7813C42.4752 46.1408 42.2945 46.6938 42.2945 47.4404C42.2945 48.8782 42.9914 49.6525 44.2818 49.6525C44.9012 49.6525 45.4432 49.4313 45.8304 49.0441ZM87.1248 49.0441C87.5378 48.6294 87.7184 48.1316 87.7184 47.3851C87.7184 45.9749 87.0216 45.2283 85.6537 45.2283C84.9569 45.2283 84.4407 45.4218 84.1052 45.7813C83.7697 46.1408 83.589 46.6938 83.589 47.4404C83.589 48.8782 84.2858 49.6525 85.5763 49.6525C86.1957 49.6525 86.7377 49.4313 87.1248 49.0441Z" fill="#DA2237" stroke="black" stroke-width="0.5"/>
<path d="M111.05 48.7953C110.663 48.3529 110.559 47.7999 110.559 46.3343C110.559 44.0393 111.024 43.2927 112.495 43.2927C113.966 43.2927 114.431 44.0393 114.431 46.3343C114.431 48.6294 113.966 49.376 112.495 49.376C111.85 49.376 111.385 49.1824 111.05 48.7953Z" fill="#DA2237" stroke="black" stroke-width="0.5"/>
</svg>
